<?xml version="1.0" standalone="no"?>
<!DOCTYPE svg PUBLIC "-//W3C//DTD SVG 20010904//EN"
 "http://www.w3.org/TR/2001/REC-SVG-20010904/DTD/svg10.dtd">
<svg version="1.0" xmlns="http://www.w3.org/2000/svg"
 width="322.000000pt" height="344.000000pt" viewBox="0 0 322.000000 344.000000"
 preserveAspectRatio="xMidYMid meet">
<metadata>
Created by potrace 1.15, written by Peter Selinger 2001-2017
</metadata>
<g transform="translate(0.000000,344.000000) scale(0.100000,-0.100000)"
fill="#000000" stroke="none">
<path d="M1838 3353 c-45 -113 -65 -343 -39 -460 13 -64 27 -137 41 -218 6
-33 14 -82 19 -110 5 -27 19 -114 32 -192 23 -143 31 -161 59 -128 10 12 11
88 6 358 -12 578 -36 777 -96 777 -6 0 -15 -12 -22 -27z"/>
<path d="M1253 3235 c-3 -9 -1 -42 5 -73 6 -31 14 -73 18 -92 29 -159 65 -258
108 -303 16 -16 166 -236 166 -243 0 -3 6 -11 13 -18 6 -7 41 -56 77 -109 36
-53 66 -90 68 -83 2 8 -27 95 -63 193 -73 197 -72 194 -109 276 -14 32 -26 60
-26 62 0 12 -124 260 -132 263 -4 2 -8 9 -8 15 0 16 -88 127 -100 127 -6 0
-13 -7 -17 -15z"/>
<path d="M855 2849 c-17 -27 93 -198 225 -351 67 -77 214 -226 295 -297 65
-58 230 -171 249 -171 6 0 28 17 50 36 l38 36 -68 70 c-170 172 -463 459 -499
489 -22 19 -42 36 -45 39 -42 43 -211 160 -232 160 -4 0 -10 -5 -13 -11z"/>
<path d="M672 2438 c-21 -21 -14 -80 14 -113 21 -25 35 -30 92 -36 78 -9 189
-24 287 -39 114 -19 185 -26 185 -20 0 15 -48 50 -90 65 -25 9 -54 21 -65 25
-11 5 -63 23 -115 40 -52 17 -104 35 -115 39 -11 5 -40 14 -65 21 -25 7 -58
16 -74 21 -37 11 -40 11 -54 -3z"/>
<path d="M1888 2152 c-120 -65 -194 -126 -259 -213 -55 -73 -99 -155 -99 -183
0 -8 -4 -17 -9 -20 -21 -13 -44 -209 -37 -319 6 -94 24 -187 36 -187 3 0 22
16 41 36 86 90 256 208 411 286 l98 49 -31 60 c-61 122 -89 299 -70 448 6 47
10 86 8 87 -1 2 -42 -18 -89 -44z"/>
<path d="M580 1997 c0 -65 22 -80 102 -73 90 9 437 25 686 32 116 3 212 10
212 14 0 9 -131 24 -335 40 -77 5 -197 15 -268 20 -70 6 -188 10 -262 10
l-135 0 0 -43z"/>
<path d="M1396 1813 c-4 -4 -33 -10 -64 -14 -31 -4 -86 -12 -122 -19 -36 -7
-90 -16 -120 -21 -180 -28 -466 -93 -488 -112 -18 -14 -7 -57 20 -80 20 -17
38 -17 83 3 70 31 358 115 545 160 106 26 218 64 234 80 7 7 -5 10 -35 10 -25
0 -49 -3 -53 -7z"/>
<path d="M2347 1645 c-98 -20 -205 -55 -211 -70 -5 -15 99 -135 117 -135 7 0
25 25 41 55 16 31 53 78 82 104 30 27 54 52 54 55 0 7 1 7 -83 -9z"/>
<path d="M2515 1647 c-56 -19 -81 -33 -126 -74 -44 -40 -76 -88 -89 -134 -8
-28 -6 -35 19 -58 31 -29 156 -95 212 -111 56 -17 182 -40 217 -40 53 0 69 15
92 86 33 97 26 186 -18 242 -62 78 -210 121 -307 89z"/>
<path d="M1410 1637 c-258 -112 -626 -303 -664 -346 -21 -23 -15 -54 17 -88
30 -33 74 -30 117 8 66 58 175 137 310 224 235 153 238 155 243 183 3 15 5 28
4 28 -1 1 -13 -3 -27 -9z"/>
<path d="M1990 1512 c-83 -42 -188 -106 -265 -163 -76 -56 -185 -159 -185
-175 0 -19 43 -96 85 -154 37 -50 121 -133 175 -172 82 -59 257 -128 326 -128
59 0 321 150 439 252 93 80 195 192 195 214 0 7 -30 14 -72 19 -128 12 -248
53 -349 117 -66 42 -163 131 -204 187 -18 24 -38 41 -50 41 -11 0 -54 -17 -95
-38z"/>
<path d="M1350 1274 c-177 -165 -290 -286 -290 -311 0 -21 89 -17 126 6 18 11
51 52 78 97 25 44 74 118 107 166 34 48 59 93 57 99 -2 7 -37 -18 -78 -57z"/>
<path d="M1277 855 c-56 -21 -168 -83 -199 -110 -42 -36 -78 -95 -78 -125 0
-60 79 -127 177 -151 135 -33 339 -27 505 15 105 27 254 91 278 121 14 17 13
18 -15 11 -241 -55 -426 -36 -529 55 -44 38 -76 96 -76 138 0 33 -9 61 -19 60
-3 0 -23 -7 -44 -14z"/>
<path d="M820 610 c-212 -64 -401 -130 -496 -175 -88 -41 -113 -59 -100 -73
10 -9 194 -4 229 7 18 5 52 15 77 22 108 28 328 120 408 170 15 10 22 24 22
46 0 17 -3 34 -7 36 -5 2 -64 -13 -133 -33z"/>
<path d="M925 372 c-99 -52 -290 -140 -336 -155 -21 -7 -74 -75 -65 -84 12
-12 89 21 193 84 58 35 107 63 109 63 7 0 99 65 102 72 2 4 9 8 15 8 7 0 25
11 41 25 39 34 25 30 -59 -13z"/>
</g>
</svg>
